<?xml version="1.0" encoding="utf-8" standalone="no"?>
<!DOCTYPE svg PUBLIC "-//W3C//DTD SVG 1.1//EN"
  "http://www.w3.org/Graphics/SVG/1.1/DTD/svg11.dtd">
<svg xmlns:xlink="http://www.w3.org/1999/xlink" width="864pt" height="432pt" viewBox="0 0 864 432" xmlns="http://www.w3.org/2000/svg" version="1.1">
 <title>Potential versus evidence</title>
 <metadata>
  <rdf:RDF xmlns:dc="http://purl.org/dc/elements/1.1/" xmlns:cc="http://creativecommons.org/ns#" xmlns:rdf="http://www.w3.org/1999/02/22-rdf-syntax-ns#">
   <cc:Work>
    <dc:type rdf:resource="http://purl.org/dc/dcmitype/StillImage"/>
    <dc:title>Potential versus evidence</dc:title>
    <dc:date>2026-09-10</dc:date>
    <dc:description>Selected direct/core programs plotted on separate hypothesis-weighted R&amp;D potential and evidence-confidence axes. Not efficacy or probability.</dc:description>
    <dc:format>image/svg+xml</dc:format>
    <dc:creator>
     <cc:Agent>
      <dc:title>Biomni Lab by Phylo; Python/matplotlib</dc:title>
     </cc:Agent>
    </dc:creator>
   </cc:Work>
  </rdf:RDF>
 </metadata>
 <defs>
  <style type="text/css">*{stroke-linejoin: round; stroke-linecap: butt}</style>
 </defs>
 <g id="figure_1">
  <g id="patch_1">
   <path d="M 0 432 
L 864 432 
L 864 0 
L 0 0 
z
" style="fill: #ffffff"/>
  </g>
  <g id="axes_1">
   <g id="patch_2">
    <path d="M 138.24 362.88 
L 812.16 362.88 
L 812.16 77.76 
L 138.24 77.76 
z
" style="fill: #ffffff"/>
   </g>
   <g id="matplotlib.axis_1">
    <g id="xtick_1">
     <g id="line2d_1">
      <path d="M 158.912393 362.88 
L 158.912393 77.76 
" clip-path="url(#pc3fe080c30)" style="fill: none; stroke: #e9e5dd; stroke-width: 0.8; stroke-linecap: square"/>
     </g>
     <g id="line2d_2"/>
     <g id="text_1">
      <text style="font-size: 9px; font-family: 'Liberation Sans'; text-anchor: middle; fill: #4a4741" x="158.912393" y="372.902187" transform="rotate(-0 158.912393 372.902187)">1.4</text>
     </g>
    </g>
    <g id="xtick_2">
     <g id="line2d_3">
      <path d="M 241.601963 362.88 
L 241.601963 77.76 
" clip-path="url(#pc3fe080c30)" style="fill: none; stroke: #e9e5dd; stroke-width: 0.8; stroke-linecap: square"/>
     </g>
     <g id="line2d_4"/>
     <g id="text_2">
      <text style="font-size: 9px; font-family: 'Liberation Sans'; text-anchor: middle; fill: #4a4741" x="241.601963" y="372.902187" transform="rotate(-0 241.601963 372.902187)">1.6</text>
     </g>
    </g>
    <g id="xtick_3">
     <g id="line2d_5">
      <path d="M 324.291534 362.88 
L 324.291534 77.76 
" clip-path="url(#pc3fe080c30)" style="fill: none; stroke: #e9e5dd; stroke-width: 0.8; stroke-linecap: square"/>
     </g>
     <g id="line2d_6"/>
     <g id="text_3">
      <text style="font-size: 9px; font-family: 'Liberation Sans'; text-anchor: middle; fill: #4a4741" x="324.291534" y="372.902187" transform="rotate(-0 324.291534 372.902187)">1.8</text>
     </g>
    </g>
    <g id="xtick_4">
     <g id="line2d_7">
      <path d="M 406.981104 362.88 
L 406.981104 77.76 
" clip-path="url(#pc3fe080c30)" style="fill: none; stroke: #e9e5dd; stroke-width: 0.8; stroke-linecap: square"/>
     </g>
     <g id="line2d_8"/>
     <g id="text_4">
      <text style="font-size: 9px; font-family: 'Liberation Sans'; text-anchor: middle; fill: #4a4741" x="406.981104" y="372.902187" transform="rotate(-0 406.981104 372.902187)">2.0</text>
     </g>
    </g>
    <g id="xtick_5">
     <g id="line2d_9">
      <path d="M 489.670675 362.88 
L 489.670675 77.76 
" clip-path="url(#pc3fe080c30)" style="fill: none; stroke: #e9e5dd; stroke-width: 0.8; stroke-linecap: square"/>
     </g>
     <g id="line2d_10"/>
     <g id="text_5">
      <text style="font-size: 9px; font-family: 'Liberation Sans'; text-anchor: middle; fill: #4a4741" x="489.670675" y="372.902187" transform="rotate(-0 489.670675 372.902187)">2.2</text>
     </g>
    </g>
    <g id="xtick_6">
     <g id="line2d_11">
      <path d="M 572.360245 362.88 
L 572.360245 77.76 
" clip-path="url(#pc3fe080c30)" style="fill: none; stroke: #e9e5dd; stroke-width: 0.8; stroke-linecap: square"/>
     </g>
     <g id="line2d_12"/>
     <g id="text_6">
      <text style="font-size: 9px; font-family: 'Liberation Sans'; text-anchor: middle; fill: #4a4741" x="572.360245" y="372.902187" transform="rotate(-0 572.360245 372.902187)">2.4</text>
     </g>
    </g>
    <g id="xtick_7">
     <g id="line2d_13">
      <path d="M 655.049816 362.88 
L 655.049816 77.76 
" clip-path="url(#pc3fe080c30)" style="fill: none; stroke: #e9e5dd; stroke-width: 0.8; stroke-linecap: square"/>
     </g>
     <g id="line2d_14"/>
     <g id="text_7">
      <text style="font-size: 9px; font-family: 'Liberation Sans'; text-anchor: middle; fill: #4a4741" x="655.049816" y="372.902187" transform="rotate(-0 655.049816 372.902187)">2.6</text>
     </g>
    </g>
    <g id="xtick_8">
     <g id="line2d_15">
      <path d="M 737.739387 362.88 
L 737.739387 77.76 
" clip-path="url(#pc3fe080c30)" style="fill: none; stroke: #e9e5dd; stroke-width: 0.8; stroke-linecap: square"/>
     </g>
     <g id="line2d_16"/>
     <g id="text_8">
      <text style="font-size: 9px; font-family: 'Liberation Sans'; text-anchor: middle; fill: #4a4741" x="737.739387" y="372.902187" transform="rotate(-0 737.739387 372.902187)">2.8</text>
     </g>
    </g>
    <g id="text_9">
     <text style="font-size: 10.5px; font-family: 'Liberation Sans'; text-anchor: middle" x="475.2" y="386.378906" transform="rotate(-0 475.2 386.378906)">Hypothesis-weighted R&amp;D potential (0–3)</text>
    </g>
   </g>
   <g id="matplotlib.axis_2">
    <g id="ytick_1">
     <g id="line2d_17">
      <path d="M 138.24 318.637241 
L 812.16 318.637241 
" clip-path="url(#pc3fe080c30)" style="fill: none; stroke: #e9e5dd; stroke-width: 0.8; stroke-linecap: square"/>
     </g>
     <g id="line2d_18"/>
     <g id="text_10">
      <text style="font-size: 9px; font-family: 'Liberation Sans'; text-anchor: end; fill: #4a4741" x="134.74" y="321.898335" transform="rotate(-0 134.74 321.898335)">Low</text>
     </g>
    </g>
    <g id="ytick_2">
     <g id="line2d_19">
      <path d="M 138.24 220.32 
L 812.16 220.32 
" clip-path="url(#pc3fe080c30)" style="fill: none; stroke: #e9e5dd; stroke-width: 0.8; stroke-linecap: square"/>
     </g>
     <g id="line2d_20"/>
     <g id="text_11">
      <text style="font-size: 9px; font-family: 'Liberation Sans'; text-anchor: end; fill: #4a4741" x="134.74" y="223.581094" transform="rotate(-0 134.74 223.581094)">Low–moderate</text>
     </g>
    </g>
    <g id="ytick_3">
     <g id="line2d_21">
      <path d="M 138.24 122.002759 
L 812.16 122.002759 
" clip-path="url(#pc3fe080c30)" style="fill: none; stroke: #e9e5dd; stroke-width: 0.8; stroke-linecap: square"/>
     </g>
     <g id="line2d_22"/>
     <g id="text_12">
      <text style="font-size: 9px; font-family: 'Liberation Sans'; text-anchor: end; fill: #4a4741" x="134.74" y="125.263852" transform="rotate(-0 134.74 125.263852)">Moderate</text>
     </g>
    </g>
    <g id="text_13">
     <text style="font-size: 10.5px; font-family: 'Liberation Sans'; text-anchor: middle" x="69.029063" y="220.32" transform="rotate(-90 69.029063 220.32)">Evidence confidence (categorical)</text>
    </g>
   </g>
   <g id="patch_3">
    <path d="M 138.24 362.88 
L 812.16 362.88 
" style="fill: none; stroke: #cfc9be; stroke-width: 0.8; stroke-linejoin: miter; stroke-linecap: square"/>
   </g>
   <g id="PathCollection_1">
    <path d="M 551.687853 327.297495 
C 553.984579 327.297495 556.187546 326.384996 557.811577 324.760966 
C 559.435608 323.136935 560.348107 320.933968 560.348107 318.637241 
C 560.348107 316.340515 559.435608 314.137548 557.811577 312.513517 
C 556.187546 310.889486 553.984579 309.976987 551.687853 309.976987 
C 549.391127 309.976987 547.188159 310.889486 545.564128 312.513517 
C 543.940098 314.137548 543.027599 316.340515 543.027599 318.637241 
C 543.027599 320.933968 543.940098 323.136935 545.564128 324.760966 
C 547.188159 326.384996 549.391127 327.297495 551.687853 327.297495 
L 551.687853 327.297495 
z
" clip-path="url(#pc3fe080c30)" style="fill: none; stroke: #d4a04a; stroke-width: 2.1"/>
   </g>
   <g id="text_14">
    <text style="font-weight: 700; font-size: 8.8px; font-family: 'Liberation Sans'; fill: #222222" transform="translate(568.225767 304.375447)">LCA-0321</text>
    <text style="font-weight: 700; font-size: 8.8px; font-family: 'Liberation Sans'; fill: #222222" transform="translate(568.225767 313.854147)">2.35/3</text>
   </g>
   <g id="PathCollection_2">
    <path d="M 717.066994 228.980254 
C 719.36372 228.980254 721.566688 228.067755 723.190718 226.443724 
C 724.814749 224.819694 725.727248 222.616726 725.727248 220.32 
C 725.727248 218.023274 724.814749 215.820306 723.190718 214.196276 
C 721.566688 212.572245 719.36372 211.659746 717.066994 211.659746 
C 714.770268 211.659746 712.5673 212.572245 710.94327 214.196276 
C 709.319239 215.820306 708.40674 218.023274 708.40674 220.32 
C 708.40674 222.616726 709.319239 224.819694 710.94327 226.443724 
C 712.5673 228.067755 714.770268 228.980254 717.066994 228.980254 
L 717.066994 228.980254 
z
" clip-path="url(#pc3fe080c30)" style="fill: none; stroke: #d4a04a; stroke-width: 2.1"/>
   </g>
   <g id="text_15">
    <text style="font-weight: 700; font-size: 8.8px; font-family: 'Liberation Sans'; fill: #222222" transform="translate(733.604908 206.058206)">MER511</text>
    <text style="font-weight: 700; font-size: 8.8px; font-family: 'Liberation Sans'; fill: #222222" transform="translate(733.604908 215.536906)">2.75/3</text>
   </g>
   <g id="text_16">
    <text style="font-size: 8.8px; font-family: 'Liberation Sans'; fill: #222222" transform="translate(444.191411 94.959723)">GenSci098 / YB-101</text>
    <text style="font-size: 8.8px; font-family: 'Liberation Sans'; fill: #222222" transform="translate(444.191411 104.438423)">2.05/3</text>
   </g>
   <g id="text_17">
    <text style="font-size: 8.8px; font-family: 'Liberation Sans'; fill: #222222" transform="translate(444.191411 151.000551)">K1-70</text>
    <text style="font-size: 8.8px; font-family: 'Liberation Sans'; fill: #222222" transform="translate(444.191411 160.479251)">2.05/3</text>
   </g>
   <g id="text_18">
    <text style="font-size: 8.8px; font-family: 'Liberation Sans'; fill: #222222" transform="translate(630.242945 206.058206)">ATX-GD-59</text>
    <text style="font-size: 8.8px; font-family: 'Liberation Sans'; fill: #222222" transform="translate(630.242945 215.536906)">2.50/3</text>
   </g>
   <g id="text_19">
    <text style="font-size: 8.8px; font-family: 'Liberation Sans'; fill: #222222" transform="translate(258.139877 304.375447)">IBI3031</text>
    <text style="font-size: 8.8px; font-family: 'Liberation Sans'; fill: #222222" transform="translate(258.139877 313.854147)">1.60/3</text>
   </g>
   <g id="text_20">
    <text style="font-size: 7.8px; font-family: 'Liberation Sans'; text-anchor: end; fill: #6c665e" x="805.4208" y="355.5591" transform="rotate(-0 805.4208 355.5591)">Marker: ○ Phase 1  ◆ Phase 2  ■ Phase 1 completed</text>
   </g>
   <g id="PathCollection_3">
    <defs>
     <path id="mca7f501089" d="M 0 7.245688 
C 1.921579 7.245688 3.764714 6.482237 5.123475 5.123475 
C 6.482237 3.764714 7.245688 1.921579 7.245688 0 
C 7.245688 -1.921579 6.482237 -3.764714 5.123475 -5.123475 
C 3.764714 -6.482237 1.921579 -7.245688 0 -7.245688 
C -1.921579 -7.245688 -3.764714 -6.482237 -5.123475 -5.123475 
C -6.482237 -3.764714 -7.245688 -1.921579 -7.245688 0 
C -7.245688 1.921579 -6.482237 3.764714 -5.123475 5.123475 
C -3.764714 6.482237 -1.921579 7.245688 0 7.245688 
z
" style="stroke: #ffffff; stroke-width: 1.4"/>
    </defs>
    <g clip-path="url(#pc3fe080c30)">
     <use xlink:href="#mca7f501089" x="551.687853" y="318.637241" style="fill: #0072b2; stroke: #ffffff; stroke-width: 1.4"/>
    </g>
   </g>
   <g id="PathCollection_4">
    <defs>
     <path id="m35392eb0cc" d="M 0 7.245688 
C 1.921579 7.245688 3.764714 6.482237 5.123475 5.123475 
C 6.482237 3.764714 7.245688 1.921579 7.245688 0 
C 7.245688 -1.921579 6.482237 -3.764714 5.123475 -5.123475 
C 3.764714 -6.482237 1.921579 -7.245688 0 -7.245688 
C -1.921579 -7.245688 -3.764714 -6.482237 -5.123475 -5.123475 
C -6.482237 -3.764714 -7.245688 -1.921579 -7.245688 0 
C -7.245688 1.921579 -6.482237 3.764714 -5.123475 5.123475 
C -3.764714 6.482237 -1.921579 7.245688 0 7.245688 
z
" style="stroke: #ffffff; stroke-width: 1.4"/>
    </defs>
    <g clip-path="url(#pc3fe080c30)">
     <use xlink:href="#m35392eb0cc" x="717.066994" y="220.32" style="fill: #e69f00; stroke: #ffffff; stroke-width: 1.4"/>
    </g>
   </g>
   <g id="PathCollection_5">
    <defs>
     <path id="m06d5afcde0" d="M -0 8.514693 
L 8.514693 0 
L 0 -8.514693 
L -8.514693 -0 
z
" style="stroke: #ffffff; stroke-width: 1.4"/>
    </defs>
    <g clip-path="url(#pc3fe080c30)">
     <use xlink:href="#m06d5afcde0" x="427.653497" y="112.171034" style="fill: #009e73; stroke: #ffffff; stroke-width: 1.4"/>
    </g>
   </g>
   <g id="PathCollection_6">
    <defs>
     <path id="mcd4759693f" d="M 0 6.020797 
C 1.596734 6.020797 3.128285 5.386408 4.257347 4.257347 
C 5.386408 3.128285 6.020797 1.596734 6.020797 0 
C 6.020797 -1.596734 5.386408 -3.128285 4.257347 -4.257347 
C 3.128285 -5.386408 1.596734 -6.020797 0 -6.020797 
C -1.596734 -6.020797 -3.128285 -5.386408 -4.257347 -4.257347 
C -5.386408 -3.128285 -6.020797 -1.596734 -6.020797 0 
C -6.020797 1.596734 -5.386408 3.128285 -4.257347 4.257347 
C -3.128285 5.386408 -1.596734 6.020797 0 6.020797 
z
" style="stroke: #ffffff; stroke-width: 1.4"/>
    </defs>
    <g clip-path="url(#pc3fe080c30)">
     <use xlink:href="#mcd4759693f" x="427.653497" y="131.834483" style="fill: #cc79a7; stroke: #ffffff; stroke-width: 1.4"/>
    </g>
   </g>
   <g id="PathCollection_7">
    <defs>
     <path id="mba6f8861b0" d="M -6.020797 6.020797 
L 6.020797 6.020797 
L 6.020797 -6.020797 
L -6.020797 -6.020797 
z
" style="stroke: #ffffff; stroke-width: 1.4"/>
    </defs>
    <g clip-path="url(#pc3fe080c30)">
     <use xlink:href="#mba6f8861b0" x="613.705031" y="220.32" style="fill: #d55e00; stroke: #ffffff; stroke-width: 1.4"/>
    </g>
   </g>
   <g id="PathCollection_8">
    <defs>
     <path id="m33a64ef4de" d="M 0 6.020797 
C 1.596734 6.020797 3.128285 5.386408 4.257347 4.257347 
C 5.386408 3.128285 6.020797 1.596734 6.020797 0 
C 6.020797 -1.596734 5.386408 -3.128285 4.257347 -4.257347 
C 3.128285 -5.386408 1.596734 -6.020797 0 -6.020797 
C -1.596734 -6.020797 -3.128285 -5.386408 -4.257347 -4.257347 
C -5.386408 -3.128285 -6.020797 -1.596734 -6.020797 0 
C -6.020797 1.596734 -5.386408 3.128285 -4.257347 4.257347 
C -3.128285 5.386408 -1.596734 6.020797 0 6.020797 
z
" style="stroke: #ffffff; stroke-width: 1.4"/>
    </defs>
    <g clip-path="url(#pc3fe080c30)">
     <use xlink:href="#m33a64ef4de" x="241.601963" y="318.637241" style="fill: #56b4e9; stroke: #ffffff; stroke-width: 1.4"/>
    </g>
   </g>
  </g>
  <g id="line2d_23">
   <path d="M 47.52 50.976 
L 816.48 50.976 
" style="fill: none; stroke: #d4a04a; stroke-width: 1.8; stroke-linecap: square"/>
  </g>
  <g id="line2d_24">
   <path d="M 47.52 400.896 
L 816.48 400.896 
" style="fill: none; stroke: #d8d2c7; stroke-width: 0.8; stroke-linecap: square"/>
  </g>
  <g id="text_21">
   <text style="font-weight: 700; font-size: 17px; font-family: 'Liberation Sans'; text-anchor: start; fill: #111111" x="47.52" y="31.759687" transform="rotate(-0 47.52 31.759687)">R&amp;D potential and evidence confidence are separate axes</text>
  </g>
  <g id="text_22">
   <text style="font-size: 9.5px; font-family: 'Liberation Sans'; text-anchor: start; fill: #5e5a53" x="47.52" y="48.356531" transform="rotate(-0 47.52 48.356531)">Selected direct/core programs only; potential is not clinical efficacy, probability of success or an investment rating.</text>
  </g>
  <g id="text_23">
   <text style="font-size: 7.6px; font-family: 'Liberation Sans'; text-anchor: start; fill: #6c665e" x="47.52" y="415.389313" transform="rotate(-0 47.52 415.389313)">Source: pipeline_assets_v2.csv · Claims RND-FRAME-001, POTENTIAL-01–06, LIMIT-004</text>
  </g>
  <g id="text_24">
   <text style="font-size: 7.6px; font-family: 'Liberation Sans'; text-anchor: end; fill: #6c665e" x="816.48" y="415.389313" transform="rotate(-0 816.48 415.389313)">Data cut 2026-09-10</text>
  </g>
 </g>
 <defs>
  <clipPath id="pc3fe080c30">
   <rect x="138.24" y="77.76" width="673.92" height="285.12"/>
  </clipPath>
 </defs>
</svg>
